<svg xmlns="http://www.w3.org/2000/svg" width="900" height="1780" viewBox="0 0 900 1780"><rect width="100%" height="100%" fill="#fff"/><text x="10" y="28" font-size="18" font-family="sans-serif">Task request distribution — valid trials, 100 requests each</text><g font-family="sans-serif"><text x="10" y="81" font-size="11">retained-ad80a58dee07-S4-AWS-1-CONTROL-r01 / 19c7928974ed</text><rect x="310" y="70" width="500.00" height="14" fill="#2f6f9f"/><text x="818.00" y="81" font-size="11">100.0%</text><text x="10" y="105" font-size="11">retained-ad80a58dee07-S4-AWS-1-CONTROL-r02 / 19c7928974ed</text><rect x="310" y="94" width="500.00" height="14" fill="#2f6f9f"/><text x="818.00" y="105" font-size="11">100.0%</text><text x="10" y="129" font-size="11">retained-ad80a58dee07-S4-AWS-1-CONTROL-r03 / 19c7928974ed</text><rect x="310" y="118" width="500.00" height="14" fill="#2f6f9f"/><text x="818.00" y="129" font-size="11">100.0%</text><text x="10" y="153" font-size="11">retained-ad80a58dee07-S4-AWS-1-CONTROL-r04 / 19c7928974ed</text><rect x="310" y="142" width="500.00" height="14" fill="#2f6f9f"/><text x="818.00" y="153" font-size="11">100.0%</text><text x="10" y="177" font-size="11">retained-ad80a58dee07-S4-AWS-1-CONTROL-r05 / 19c7928974ed</text><rect x="310" y="166" width="500.00" height="14" fill="#2f6f9f"/><text x="818.00" y="177" font-size="11">100.0%</text><text x="10" y="201" font-size="11">retained-ad80a58dee07-S4-AWS-1-CONTROL-r06 / 19c7928974ed</text><rect x="310" y="190" width="500.00" height="14" fill="#2f6f9f"/><text x="818.00" y="201" font-size="11">100.0%</text><text x="10" y="225" font-size="11">retained-ad80a58dee07-S4-AWS-1-CONTROL-r07 / 19c7928974ed</text><rect x="310" y="214" width="500.00" height="14" fill="#2f6f9f"/><text x="818.00" y="225" font-size="11">100.0%</text><text x="10" y="249" font-size="11">retained-ad80a58dee07-S4-AWS-1-CONTROL-r08 / 19c7928974ed</text><rect x="310" y="238" width="500.00" height="14" fill="#2f6f9f"/><text x="818.00" y="249" font-size="11">100.0%</text><text x="10" y="273" font-size="11">retained-ad80a58dee07-S4-AWS-1-CONTROL-r09 / 19c7928974ed</text><rect x="310" y="262" width="500.00" height="14" fill="#2f6f9f"/><text x="818.00" y="273" font-size="11">100.0%</text><text x="10" y="297" font-size="11">retained-ad80a58dee07-S4-AWS-1-CONTROL-r10 / 19c7928974ed</text><rect x="310" y="286" width="500.00" height="14" fill="#2f6f9f"/><text x="818.00" y="297" font-size="11">100.0%</text><text x="10" y="321" font-size="11">retained-ad80a58dee07-S4-AWS-2-r01 / 02965b9adc1b</text><rect x="310" y="310" width="250.00" height="14" fill="#2f6f9f"/><text x="568.00" y="321" font-size="11">50.0%</text><text x="10" y="345" font-size="11">retained-ad80a58dee07-S4-AWS-2-r01 / ff455c38fa77</text><rect x="310" y="334" width="250.00" height="14" fill="#2f6f9f"/><text x="568.00" y="345" font-size="11">50.0%</text><text x="10" y="369" font-size="11">retained-ad80a58dee07-S4-AWS-2-r02 / 02965b9adc1b</text><rect x="310" y="358" width="245.00" height="14" fill="#2f6f9f"/><text x="563.00" y="369" font-size="11">49.0%</text><text x="10" y="393" font-size="11">retained-ad80a58dee07-S4-AWS-2-r02 / ff455c38fa77</text><rect x="310" y="382" width="255.00" height="14" fill="#2f6f9f"/><text x="573.00" y="393" font-size="11">51.0%</text><text x="10" y="417" font-size="11">retained-ad80a58dee07-S4-AWS-2-r03 / 02965b9adc1b</text><rect x="310" y="406" width="255.00" height="14" fill="#2f6f9f"/><text x="573.00" y="417" font-size="11">51.0%</text><text x="10" y="441" font-size="11">retained-ad80a58dee07-S4-AWS-2-r03 / ff455c38fa77</text><rect x="310" y="430" width="245.00" height="14" fill="#2f6f9f"/><text x="563.00" y="441" font-size="11">49.0%</text><text x="10" y="465" font-size="11">retained-ad80a58dee07-S4-AWS-2-r04 / 02965b9adc1b</text><rect x="310" y="454" width="245.00" height="14" fill="#2f6f9f"/><text x="563.00" y="465" font-size="11">49.0%</text><text x="10" y="489" font-size="11">retained-ad80a58dee07-S4-AWS-2-r04 / ff455c38fa77</text><rect x="310" y="478" width="255.00" height="14" fill="#2f6f9f"/><text x="573.00" y="489" font-size="11">51.0%</text><text x="10" y="513" font-size="11">retained-ad80a58dee07-S4-AWS-2-r05 / 02965b9adc1b</text><rect x="310" y="502" width="255.00" height="14" fill="#2f6f9f"/><text x="573.00" y="513" font-size="11">51.0%</text><text x="10" y="537" font-size="11">retained-ad80a58dee07-S4-AWS-2-r05 / ff455c38fa77</text><rect x="310" y="526" width="245.00" height="14" fill="#2f6f9f"/><text x="563.00" y="537" font-size="11">49.0%</text><text x="10" y="561" font-size="11">retained-ad80a58dee07-S4-AWS-2-r06 / 02965b9adc1b</text><rect x="310" y="550" width="245.00" height="14" fill="#2f6f9f"/><text x="563.00" y="561" font-size="11">49.0%</text><text x="10" y="585" font-size="11">retained-ad80a58dee07-S4-AWS-2-r06 / ff455c38fa77</text><rect x="310" y="574" width="255.00" height="14" fill="#2f6f9f"/><text x="573.00" y="585" font-size="11">51.0%</text><text x="10" y="609" font-size="11">retained-ad80a58dee07-S4-AWS-2-r07 / 02965b9adc1b</text><rect x="310" y="598" width="250.00" height="14" fill="#2f6f9f"/><text x="568.00" y="609" font-size="11">50.0%</text><text x="10" y="633" font-size="11">retained-ad80a58dee07-S4-AWS-2-r07 / ff455c38fa77</text><rect x="310" y="622" width="250.00" height="14" fill="#2f6f9f"/><text x="568.00" y="633" font-size="11">50.0%</text><text x="10" y="657" font-size="11">retained-ad80a58dee07-S4-AWS-2-r08 / 02965b9adc1b</text><rect x="310" y="646" width="250.00" height="14" fill="#2f6f9f"/><text x="568.00" y="657" font-size="11">50.0%</text><text x="10" y="681" font-size="11">retained-ad80a58dee07-S4-AWS-2-r08 / ff455c38fa77</text><rect x="310" y="670" width="250.00" height="14" fill="#2f6f9f"/><text x="568.00" y="681" font-size="11">50.0%</text><text x="10" y="705" font-size="11">retained-ad80a58dee07-S4-AWS-2-r09 / 02965b9adc1b</text><rect x="310" y="694" width="250.00" height="14" fill="#2f6f9f"/><text x="568.00" y="705" font-size="11">50.0%</text><text x="10" y="729" font-size="11">retained-ad80a58dee07-S4-AWS-2-r09 / ff455c38fa77</text><rect x="310" y="718" width="250.00" height="14" fill="#2f6f9f"/><text x="568.00" y="729" font-size="11">50.0%</text><text x="10" y="753" font-size="11">retained-ad80a58dee07-S4-AWS-2-r10 / 02965b9adc1b</text><rect x="310" y="742" width="250.00" height="14" fill="#2f6f9f"/><text x="568.00" y="753" font-size="11">50.0%</text><text x="10" y="777" font-size="11">retained-ad80a58dee07-S4-AWS-2-r10 / ff455c38fa77</text><rect x="310" y="766" width="250.00" height="14" fill="#2f6f9f"/><text x="568.00" y="777" font-size="11">50.0%</text><text x="10" y="801" font-size="11">retained-ad80a58dee07-S4-AWS-4-r01 / 050220889959</text><rect x="310" y="790" width="130.00" height="14" fill="#2f6f9f"/><text x="448.00" y="801" font-size="11">26.0%</text><text x="10" y="825" font-size="11">retained-ad80a58dee07-S4-AWS-4-r01 / 7d2442d24846</text><rect x="310" y="814" width="125.00" height="14" fill="#2f6f9f"/><text x="443.00" y="825" font-size="11">25.0%</text><text x="10" y="849" font-size="11">retained-ad80a58dee07-S4-AWS-4-r01 / b971842de919</text><rect x="310" y="838" width="120.00" height="14" fill="#2f6f9f"/><text x="438.00" y="849" font-size="11">24.0%</text><text x="10" y="873" font-size="11">retained-ad80a58dee07-S4-AWS-4-r01 / fdc782ff6e30</text><rect x="310" y="862" width="125.00" height="14" fill="#2f6f9f"/><text x="443.00" y="873" font-size="11">25.0%</text><text x="10" y="897" font-size="11">retained-ad80a58dee07-S4-AWS-4-r02 / 050220889959</text><rect x="310" y="886" width="125.00" height="14" fill="#2f6f9f"/><text x="443.00" y="897" font-size="11">25.0%</text><text x="10" y="921" font-size="11">retained-ad80a58dee07-S4-AWS-4-r02 / 7d2442d24846</text><rect x="310" y="910" width="130.00" height="14" fill="#2f6f9f"/><text x="448.00" y="921" font-size="11">26.0%</text><text x="10" y="945" font-size="11">retained-ad80a58dee07-S4-AWS-4-r02 / b971842de919</text><rect x="310" y="934" width="125.00" height="14" fill="#2f6f9f"/><text x="443.00" y="945" font-size="11">25.0%</text><text x="10" y="969" font-size="11">retained-ad80a58dee07-S4-AWS-4-r02 / fdc782ff6e30</text><rect x="310" y="958" width="120.00" height="14" fill="#2f6f9f"/><text x="438.00" y="969" font-size="11">24.0%</text><text x="10" y="993" font-size="11">retained-ad80a58dee07-S4-AWS-4-r03 / 050220889959</text><rect x="310" y="982" width="125.00" height="14" fill="#2f6f9f"/><text x="443.00" y="993" font-size="11">25.0%</text><text x="10" y="1017" font-size="11">retained-ad80a58dee07-S4-AWS-4-r03 / 7d2442d24846</text><rect x="310" y="1006" width="120.00" height="14" fill="#2f6f9f"/><text x="438.00" y="1017" font-size="11">24.0%</text><text x="10" y="1041" font-size="11">retained-ad80a58dee07-S4-AWS-4-r03 / b971842de919</text><rect x="310" y="1030" width="125.00" height="14" fill="#2f6f9f"/><text x="443.00" y="1041" font-size="11">25.0%</text><text x="10" y="1065" font-size="11">retained-ad80a58dee07-S4-AWS-4-r03 / fdc782ff6e30</text><rect x="310" y="1054" width="130.00" height="14" fill="#2f6f9f"/><text x="448.00" y="1065" font-size="11">26.0%</text><text x="10" y="1089" font-size="11">retained-ad80a58dee07-S4-AWS-4-r04 / 050220889959</text><rect x="310" y="1078" width="125.00" height="14" fill="#2f6f9f"/><text x="443.00" y="1089" font-size="11">25.0%</text><text x="10" y="1113" font-size="11">retained-ad80a58dee07-S4-AWS-4-r04 / 7d2442d24846</text><rect x="310" y="1102" width="125.00" height="14" fill="#2f6f9f"/><text x="443.00" y="1113" font-size="11">25.0%</text><text x="10" y="1137" font-size="11">retained-ad80a58dee07-S4-AWS-4-r04 / b971842de919</text><rect x="310" y="1126" width="120.00" height="14" fill="#2f6f9f"/><text x="438.00" y="1137" font-size="11">24.0%</text><text x="10" y="1161" font-size="11">retained-ad80a58dee07-S4-AWS-4-r04 / fdc782ff6e30</text><rect x="310" y="1150" width="130.00" height="14" fill="#2f6f9f"/><text x="448.00" y="1161" font-size="11">26.0%</text><text x="10" y="1185" font-size="11">retained-ad80a58dee07-S4-AWS-4-r05 / 050220889959</text><rect x="310" y="1174" width="125.00" height="14" fill="#2f6f9f"/><text x="443.00" y="1185" font-size="11">25.0%</text><text x="10" y="1209" font-size="11">retained-ad80a58dee07-S4-AWS-4-r05 / 7d2442d24846</text><rect x="310" y="1198" width="125.00" height="14" fill="#2f6f9f"/><text x="443.00" y="1209" font-size="11">25.0%</text><text x="10" y="1233" font-size="11">retained-ad80a58dee07-S4-AWS-4-r05 / b971842de919</text><rect x="310" y="1222" width="130.00" height="14" fill="#2f6f9f"/><text x="448.00" y="1233" font-size="11">26.0%</text><text x="10" y="1257" font-size="11">retained-ad80a58dee07-S4-AWS-4-r05 / fdc782ff6e30</text><rect x="310" y="1246" width="120.00" height="14" fill="#2f6f9f"/><text x="438.00" y="1257" font-size="11">24.0%</text><text x="10" y="1281" font-size="11">retained-ad80a58dee07-S4-AWS-4-r06 / 050220889959</text><rect x="310" y="1270" width="125.00" height="14" fill="#2f6f9f"/><text x="443.00" y="1281" font-size="11">25.0%</text><text x="10" y="1305" font-size="11">retained-ad80a58dee07-S4-AWS-4-r06 / 7d2442d24846</text><rect x="310" y="1294" width="125.00" height="14" fill="#2f6f9f"/><text x="443.00" y="1305" font-size="11">25.0%</text><text x="10" y="1329" font-size="11">retained-ad80a58dee07-S4-AWS-4-r06 / b971842de919</text><rect x="310" y="1318" width="120.00" height="14" fill="#2f6f9f"/><text x="438.00" y="1329" font-size="11">24.0%</text><text x="10" y="1353" font-size="11">retained-ad80a58dee07-S4-AWS-4-r06 / fdc782ff6e30</text><rect x="310" y="1342" width="130.00" height="14" fill="#2f6f9f"/><text x="448.00" y="1353" font-size="11">26.0%</text><text x="10" y="1377" font-size="11">retained-ad80a58dee07-S4-AWS-4-r07 / 050220889959</text><rect x="310" y="1366" width="125.00" height="14" fill="#2f6f9f"/><text x="443.00" y="1377" font-size="11">25.0%</text><text x="10" y="1401" font-size="11">retained-ad80a58dee07-S4-AWS-4-r07 / 7d2442d24846</text><rect x="310" y="1390" width="120.00" height="14" fill="#2f6f9f"/><text x="438.00" y="1401" font-size="11">24.0%</text><text x="10" y="1425" font-size="11">retained-ad80a58dee07-S4-AWS-4-r07 / b971842de919</text><rect x="310" y="1414" width="130.00" height="14" fill="#2f6f9f"/><text x="448.00" y="1425" font-size="11">26.0%</text><text x="10" y="1449" font-size="11">retained-ad80a58dee07-S4-AWS-4-r07 / fdc782ff6e30</text><rect x="310" y="1438" width="125.00" height="14" fill="#2f6f9f"/><text x="443.00" y="1449" font-size="11">25.0%</text><text x="10" y="1473" font-size="11">retained-ad80a58dee07-S4-AWS-4-r08 / 050220889959</text><rect x="310" y="1462" width="125.00" height="14" fill="#2f6f9f"/><text x="443.00" y="1473" font-size="11">25.0%</text><text x="10" y="1497" font-size="11">retained-ad80a58dee07-S4-AWS-4-r08 / 7d2442d24846</text><rect x="310" y="1486" width="125.00" height="14" fill="#2f6f9f"/><text x="443.00" y="1497" font-size="11">25.0%</text><text x="10" y="1521" font-size="11">retained-ad80a58dee07-S4-AWS-4-r08 / b971842de919</text><rect x="310" y="1510" width="125.00" height="14" fill="#2f6f9f"/><text x="443.00" y="1521" font-size="11">25.0%</text><text x="10" y="1545" font-size="11">retained-ad80a58dee07-S4-AWS-4-r08 / fdc782ff6e30</text><rect x="310" y="1534" width="125.00" height="14" fill="#2f6f9f"/><text x="443.00" y="1545" font-size="11">25.0%</text><text x="10" y="1569" font-size="11">retained-ad80a58dee07-S4-AWS-4-r09 / 050220889959</text><rect x="310" y="1558" width="120.00" height="14" fill="#2f6f9f"/><text x="438.00" y="1569" font-size="11">24.0%</text><text x="10" y="1593" font-size="11">retained-ad80a58dee07-S4-AWS-4-r09 / 7d2442d24846</text><rect x="310" y="1582" width="125.00" height="14" fill="#2f6f9f"/><text x="443.00" y="1593" font-size="11">25.0%</text><text x="10" y="1617" font-size="11">retained-ad80a58dee07-S4-AWS-4-r09 / b971842de919</text><rect x="310" y="1606" width="130.00" height="14" fill="#2f6f9f"/><text x="448.00" y="1617" font-size="11">26.0%</text><text x="10" y="1641" font-size="11">retained-ad80a58dee07-S4-AWS-4-r09 / fdc782ff6e30</text><rect x="310" y="1630" width="125.00" height="14" fill="#2f6f9f"/><text x="443.00" y="1641" font-size="11">25.0%</text><text x="10" y="1665" font-size="11">retained-ad80a58dee07-S4-AWS-4-r10 / 050220889959</text><rect x="310" y="1654" width="135.00" height="14" fill="#2f6f9f"/><text x="453.00" y="1665" font-size="11">27.0%</text><text x="10" y="1689" font-size="11">retained-ad80a58dee07-S4-AWS-4-r10 / 7d2442d24846</text><rect x="310" y="1678" width="120.00" height="14" fill="#2f6f9f"/><text x="438.00" y="1689" font-size="11">24.0%</text><text x="10" y="1713" font-size="11">retained-ad80a58dee07-S4-AWS-4-r10 / b971842de919</text><rect x="310" y="1702" width="125.00" height="14" fill="#2f6f9f"/><text x="443.00" y="1713" font-size="11">25.0%</text><text x="10" y="1737" font-size="11">retained-ad80a58dee07-S4-AWS-4-r10 / fdc782ff6e30</text><rect x="310" y="1726" width="120.00" height="14" fill="#2f6f9f"/><text x="438.00" y="1737" font-size="11">24.0%</text></g></svg>
