<svg xmlns="http://www.w3.org/2000/svg" width="1180" height="960" viewBox="0 0 1180 960"><rect width="100%" height="100%" fill="#fff"/><style>text{font-family:system-ui,-apple-system,Segoe UI,sans-serif;fill:#17202a}.axis{stroke:#657786;stroke-width:1}.grid{stroke:#e5eaee;stroke-width:1}.label{font-size:12px}.small{font-size:11px;fill:#52616b}.title{font-size:22px;font-weight:700}.subtitle{font-size:13px;fill:#52616b}.panel{font-size:14px;font-weight:600}</style><text x="110" y="36" class="title">Healthy request impact during fault transform-timeout</text><text x="110" y="58" class="subtitle">run aws-calib2-e8c21674a86f · 5-second buckets by request start · mean over valid trials · shaded band = fault window · CALIBRATION (excluded from retained results)</text><text x="110" y="78" class="subtitle">affected = failed or slower than 246 ms (hit) / 6735 ms (healthy miss)</text><text x="110" y="100.0" class="panel">Hit stream p99 latency (ms, log scale)</text><rect x="302.0" y="110.0" width="384.0" height="150.0" fill="#fdebd0" opacity="0.7"/><line x1="110" y1="260.0" x2="1070" y2="260.0" class="grid"/><text x="102" y="264.0" text-anchor="end" class="label">0.1 ms</text><line x1="110" y1="210.0" x2="1070" y2="210.0" class="grid"/><text x="102" y="214.0" text-anchor="end" class="label">1 ms</text><line x1="110" y1="160.0" x2="1070" y2="160.0" class="grid"/><text x="102" y="164.0" text-anchor="end" class="label">10 ms</text><line x1="110" y1="110.0" x2="1070" y2="110.0" class="grid"/><text x="102" y="114.0" text-anchor="end" class="label">100 ms</text><line x1="110" y1="110.0" x2="110" y2="260.0" class="axis"/><line x1="110" y1="260.0" x2="1070" y2="260.0" class="axis"/><line x1="110.0" y1="260.0" x2="110.0" y2="264.0" class="axis"/><text x="110.0" y="278.0" text-anchor="middle" class="label">0 s</text><line x1="302.0" y1="260.0" x2="302.0" y2="264.0" class="axis"/><text x="302.0" y="278.0" text-anchor="middle" class="label">30 s</text><line x1="494.0" y1="260.0" x2="494.0" y2="264.0" class="axis"/><text x="494.0" y="278.0" text-anchor="middle" class="label">60 s</text><line x1="686.0" y1="260.0" x2="686.0" y2="264.0" class="axis"/><text x="686.0" y="278.0" text-anchor="middle" class="label">90 s</text><line x1="878.0" y1="260.0" x2="878.0" y2="264.0" class="axis"/><text x="878.0" y="278.0" text-anchor="middle" class="label">120 s</text><line x1="1070.0" y1="260.0" x2="1070.0" y2="264.0" class="axis"/><text x="1070.0" y="278.0" text-anchor="middle" class="label">150 s</text><polyline points="126.0,137.9 158.0,114.4 190.0,114.3 222.0,114.4 254.0,114.4 286.0,114.3 318.0,123.6 350.0,134.5 382.0,136.9 414.0,136.9 446.0,135.5 478.0,136.8 510.0,137.2 542.0,137.5 574.0,138.2 606.0,137.1 638.0,136.8 670.0,130.4 702.0,114.5 734.0,114.3 766.0,114.2 798.0,114.4 830.0,114.5 862.0,114.3 894.0,114.4 926.0,114.4 958.0,126.7 990.0,114.5 1022.0,114.3 1054.0,134.7 " fill="none" stroke="#c0392b" stroke-width="2.2" stroke-dasharray=""/><text x="110" y="302.0" class="panel">Hit stream affected rate (%)</text><rect x="302.0" y="312.0" width="384.0" height="150.0" fill="#fdebd0" opacity="0.7"/><line x1="110" y1="462.0" x2="1070" y2="462.0" class="grid"/><text x="102" y="466.0" text-anchor="end" class="label">0%</text><line x1="110" y1="424.5" x2="1070" y2="424.5" class="grid"/><text x="102" y="428.5" text-anchor="end" class="label">25%</text><line x1="110" y1="387.0" x2="1070" y2="387.0" class="grid"/><text x="102" y="391.0" text-anchor="end" class="label">50%</text><line x1="110" y1="349.5" x2="1070" y2="349.5" class="grid"/><text x="102" y="353.5" text-anchor="end" class="label">75%</text><line x1="110" y1="312.0" x2="1070" y2="312.0" class="grid"/><text x="102" y="316.0" text-anchor="end" class="label">100%</text><line x1="110" y1="312.0" x2="110" y2="462.0" class="axis"/><line x1="110" y1="462.0" x2="1070" y2="462.0" class="axis"/><line x1="110.0" y1="462.0" x2="110.0" y2="466.0" class="axis"/><text x="110.0" y="480.0" text-anchor="middle" class="label">0 s</text><line x1="302.0" y1="462.0" x2="302.0" y2="466.0" class="axis"/><text x="302.0" y="480.0" text-anchor="middle" class="label">30 s</text><line x1="494.0" y1="462.0" x2="494.0" y2="466.0" class="axis"/><text x="494.0" y="480.0" text-anchor="middle" class="label">60 s</text><line x1="686.0" y1="462.0" x2="686.0" y2="466.0" class="axis"/><text x="686.0" y="480.0" text-anchor="middle" class="label">90 s</text><line x1="878.0" y1="462.0" x2="878.0" y2="466.0" class="axis"/><text x="878.0" y="480.0" text-anchor="middle" class="label">120 s</text><line x1="1070.0" y1="462.0" x2="1070.0" y2="466.0" class="axis"/><text x="1070.0" y="480.0" text-anchor="middle" class="label">150 s</text><polyline points="126.0,462.0 158.0,462.0 190.0,462.0 222.0,462.0 254.0,462.0 286.0,462.0 318.0,462.0 350.0,462.0 382.0,462.0 414.0,462.0 446.0,462.0 478.0,462.0 510.0,462.0 542.0,462.0 574.0,462.0 606.0,462.0 638.0,462.0 670.0,462.0 702.0,462.0 734.0,462.0 766.0,462.0 798.0,462.0 830.0,462.0 862.0,462.0 894.0,462.0 926.0,462.0 958.0,462.0 990.0,462.0 1022.0,462.0 1054.0,462.0 " fill="none" stroke="#c0392b" stroke-width="2.2" stroke-dasharray=""/><text x="110" y="504.0" class="panel">Healthy miss stream p99 latency (ms, log scale)</text><rect x="302.0" y="514.0" width="384.0" height="150.0" fill="#fdebd0" opacity="0.7"/><line x1="110" y1="664.0" x2="1070" y2="664.0" class="grid"/><text x="102" y="668.0" text-anchor="end" class="label">1 ms</text><line x1="110" y1="634.0" x2="1070" y2="634.0" class="grid"/><text x="102" y="638.0" text-anchor="end" class="label">10 ms</text><line x1="110" y1="604.0" x2="1070" y2="604.0" class="grid"/><text x="102" y="608.0" text-anchor="end" class="label">100 ms</text><line x1="110" y1="574.0" x2="1070" y2="574.0" class="grid"/><text x="102" y="578.0" text-anchor="end" class="label">1 s</text><line x1="110" y1="544.0" x2="1070" y2="544.0" class="grid"/><text x="102" y="548.0" text-anchor="end" class="label">10 s</text><line x1="110" y1="514.0" x2="1070" y2="514.0" class="grid"/><text x="102" y="518.0" text-anchor="end" class="label">100 s</text><line x1="110" y1="514.0" x2="110" y2="664.0" class="axis"/><line x1="110" y1="664.0" x2="1070" y2="664.0" class="axis"/><line x1="110.0" y1="664.0" x2="110.0" y2="668.0" class="axis"/><text x="110.0" y="682.0" text-anchor="middle" class="label">0 s</text><line x1="302.0" y1="664.0" x2="302.0" y2="668.0" class="axis"/><text x="302.0" y="682.0" text-anchor="middle" class="label">30 s</text><line x1="494.0" y1="664.0" x2="494.0" y2="668.0" class="axis"/><text x="494.0" y="682.0" text-anchor="middle" class="label">60 s</text><line x1="686.0" y1="664.0" x2="686.0" y2="668.0" class="axis"/><text x="686.0" y="682.0" text-anchor="middle" class="label">90 s</text><line x1="878.0" y1="664.0" x2="878.0" y2="668.0" class="axis"/><text x="878.0" y="682.0" text-anchor="middle" class="label">120 s</text><line x1="1070.0" y1="664.0" x2="1070.0" y2="668.0" class="axis"/><text x="1070.0" y="682.0" text-anchor="middle" class="label">150 s</text><polyline points="158.0,563.3 190.0,563.5 222.0,563.5 254.0,564.6 286.0,564.2 318.0,567.6 350.0,575.4 382.0,540.2 414.0,543.0 446.0,540.3 478.0,540.3 510.0,543.0 542.0,540.3 574.0,542.9 606.0,540.3 638.0,540.8 670.0,541.1 702.0,545.6 734.0,548.1 766.0,548.3 798.0,553.6 830.0,563.6 862.0,564.0 894.0,563.3 926.0,563.0 958.0,563.0 990.0,564.2 1022.0,563.5 1054.0,564.1 " fill="none" stroke="#c0392b" stroke-width="2.2" stroke-dasharray=""/><text x="110" y="706.0" class="panel">Healthy miss stream affected rate (%)</text><rect x="302.0" y="716.0" width="384.0" height="150.0" fill="#fdebd0" opacity="0.7"/><line x1="110" y1="866.0" x2="1070" y2="866.0" class="grid"/><text x="102" y="870.0" text-anchor="end" class="label">0%</text><line x1="110" y1="828.5" x2="1070" y2="828.5" class="grid"/><text x="102" y="832.5" text-anchor="end" class="label">25%</text><line x1="110" y1="791.0" x2="1070" y2="791.0" class="grid"/><text x="102" y="795.0" text-anchor="end" class="label">50%</text><line x1="110" y1="753.5" x2="1070" y2="753.5" class="grid"/><text x="102" y="757.5" text-anchor="end" class="label">75%</text><line x1="110" y1="716.0" x2="1070" y2="716.0" class="grid"/><text x="102" y="720.0" text-anchor="end" class="label">100%</text><line x1="110" y1="716.0" x2="110" y2="866.0" class="axis"/><line x1="110" y1="866.0" x2="1070" y2="866.0" class="axis"/><line x1="110.0" y1="866.0" x2="110.0" y2="870.0" class="axis"/><text x="110.0" y="884.0" text-anchor="middle" class="label">0 s</text><line x1="302.0" y1="866.0" x2="302.0" y2="870.0" class="axis"/><text x="302.0" y="884.0" text-anchor="middle" class="label">30 s</text><line x1="494.0" y1="866.0" x2="494.0" y2="870.0" class="axis"/><text x="494.0" y="884.0" text-anchor="middle" class="label">60 s</text><line x1="686.0" y1="866.0" x2="686.0" y2="870.0" class="axis"/><text x="686.0" y="884.0" text-anchor="middle" class="label">90 s</text><line x1="878.0" y1="866.0" x2="878.0" y2="870.0" class="axis"/><text x="878.0" y="884.0" text-anchor="middle" class="label">120 s</text><line x1="1070.0" y1="866.0" x2="1070.0" y2="870.0" class="axis"/><text x="1070.0" y="884.0" text-anchor="middle" class="label">150 s</text><polyline points="158.0,866.0 190.0,866.0 222.0,866.0 254.0,866.0 286.0,866.0 318.0,866.0 350.0,866.0 382.0,716.0 414.0,716.0 446.0,716.0 478.0,716.0 510.0,716.0 542.0,716.0 574.0,716.0 606.0,716.0 638.0,716.0 670.0,716.0 702.0,716.0 734.0,716.0 766.0,716.0 798.0,866.0 830.0,866.0 862.0,866.0 894.0,866.0 926.0,866.0 958.0,866.0 990.0,866.0 1022.0,866.0 1054.0,866.0 " fill="none" stroke="#c0392b" stroke-width="2.2" stroke-dasharray=""/><line x1="110" y1="922" x2="140" y2="922" stroke="#c0392b" stroke-width="2.2" stroke-dasharray=""/><text x="146" y="926" class="label">M0 baseline</text><rect x="370" y="915" width="14" height="14" fill="#fdebd0"/><text x="390" y="926" class="label">fault window</text></svg>